<?xml version="1.0" standalone="no"?>
<!DOCTYPE svg PUBLIC "-//W3C//DTD SVG 20010904//EN"
 "http://www.w3.org/TR/2001/REC-SVG-20010904/DTD/svg10.dtd">
<svg version="1.0" xmlns="http://www.w3.org/2000/svg"
 width="1662.000000pt" height="946.000000pt" viewBox="0 0 1662.000000 946.000000"
 preserveAspectRatio="xMidYMid meet">

<g transform="translate(0.000000,946.000000) scale(0.100000,-0.100000)"
fill="#000000" stroke="none">
<path d="M1150 7810 l0 -200 1020 0 c561 0 1023 0 1028 0 4 0 8 90 10 200 l2
200 -1030 0 -1030 0 0 -200z"/>
<path d="M1150 6990 l0 -200 1028 2 1027 3 3 198 2 197 -1030 0 -1030 0 0
-200z"/>
<path d="M3588 6993 c-17 -4 -18 -74 -18 -1284 l0 -1279 935 0 935 0 0 260 0
260 -661 0 -661 0 3 1023 4 1022 -260 1 c-143 1 -268 0 -277 -3z"/>
<path d="M5913 6993 l-23 -4 0 -1280 0 -1279 935 0 935 0 0 260 0 260 -666 0
-667 0 5 1025 5 1026 -251 -2 c-138 -1 -261 -4 -273 -6z"/>
<path d="M7860 6981 c0 -14 222 -1461 295 -1921 19 -124 50 -316 67 -427 l32
-203 270 0 271 0 182 363 c100 199 200 396 222 436 l39 75 152 -310 c83 -170
179 -366 212 -436 l61 -128 272 0 273 0 5 28 c3 15 24 144 47 287 79 494 250
1521 310 1864 33 190 60 355 60 367 l0 22 -272 -2 -273 -1 -36 -205 c-69 -379
-197 -1134 -214 -1255 -9 -66 -18 -126 -21 -133 -2 -7 -89 155 -192 360 -216
426 -355 695 -374 721 -12 16 -35 -23 -212 -365 -109 -211 -240 -461 -290
-557 l-91 -174 -8 49 c-4 27 -30 202 -58 389 -27 187 -65 441 -84 565 -19 124
-46 309 -61 412 l-28 186 -54 7 c-30 4 -155 5 -278 4 -186 -3 -224 -6 -224
-18z"/>
<path d="M11108 6993 l-28 -4 0 -255 0 -254 940 0 940 0 0 260 0 260 -912 -1
c-502 -1 -925 -4 -940 -6z"/>
<path d="M13328 6993 c-17 -4 -18 -25 -18 -264 l0 -259 698 0 c655 0 699 -2
737 -19 148 -68 187 -261 77 -383 -74 -82 -28 -78 -814 -78 l-698 0 0 -270 0
-270 703 0 702 0 52 -30 c57 -33 86 -68 108 -131 42 -119 -19 -270 -127 -314
-39 -16 -105 -17 -738 -19 l-695 -1 -3 -268 -2 -269 727 5 c778 5 780 5 933
57 162 56 288 167 365 323 69 142 80 194 80 392 0 165 -1 172 -31 258 -34 94
-79 176 -131 237 l-33 38 35 45 c46 61 98 165 127 257 33 107 33 303 -1 405
-91 275 -281 458 -558 536 -77 22 -89 23 -778 25 -385 1 -708 0 -717 -3z"/>
<path d="M1150 6185 l0 -195 1020 0 c561 0 1023 0 1028 0 4 0 7 87 7 193 l0
192 -1027 3 -1028 2 0 -195z"/>
<path d="M11080 5725 l0 -265 623 2 622 3 3 256 2 256 -256 6 c-142 4 -423 7
-626 7 l-368 0 0 -265z"/>
<path d="M1150 5375 l0 -195 1028 2 1027 3 3 193 2 192 -1030 0 -1030 0 0
-195z"/>
<path d="M11078 4708 c-2 -134 -2 -251 0 -260 4 -17 57 -18 943 -18 l939 0 0
260 0 260 -939 0 -939 0 -4 -242z"/>
<path d="M1150 4580 l0 -190 1030 0 1030 0 0 190 0 190 -1030 0 -1030 0 0
-190z"/>
<path d="M1150 3775 l0 -195 2715 0 2715 0 0 195 0 195 -2715 0 -2715 0 0
-195z"/>
<path d="M2374 3137 c-2 -7 -3 -96 -2 -197 l3 -185 2103 -3 2102 -2 0 200 0
200 -2100 0 c-1699 0 -2102 -2 -2106 -13z"/>
<path d="M3430 2115 l0 -195 1575 0 1575 0 0 195 0 195 -1575 0 -1575 0 0
-195z"/>
</g>
</svg>
