<svg version="1.2" xmlns="http://www.w3.org/2000/svg" viewBox="0 0 1662 946" width="1000" height="1000">
	<style>
		.s0 { fill: #000000 } 
	</style>
	<g>
		<path class="s0" d="m115 165v20h102c56.1 0 102.3 0 102.8 0 0.4 0 0.8-9 1-20l0.2-20h-103-103z"/>
		<path class="s0" d="m115 247v20l102.8-0.2 102.7-0.3 0.3-19.8 0.2-19.7h-103-103z"/>
		<path class="s0" d="m115 327.5v19.5h102c56.1 0 102.3 0 102.8 0 0.4 0 0.7-8.7 0.7-19.3v-19.2l-102.7-0.3-102.8-0.2z"/>
		<path class="s0" d="m115 408.5v19.5l102.8-0.2 102.7-0.3 0.3-19.3 0.2-19.2h-103-103z"/>
		<path class="s0" d="m115 488v19h103 103v-19-19h-103-103z"/>
		<path class="s0" d="m115 568.5v19.5h271.5 271.5v-19.5-19.5h-271.5-271.5z"/>
		<path class="s0" d="m237.4 632.3c-0.2 0.7-0.3 9.6-0.2 19.7l0.3 18.5 210.3 0.3 210.2 0.2v-20-20h-210c-169.9 0-210.2 0.2-210.6 1.3z"/>
		<path class="s0" d="m343 734.5v19.5h157.5 157.5v-19.5-19.5h-157.5-157.5z"/>
	</g>
</svg>